<svg width="601" height="235" viewBox="0 0 601 235" xmlns="http://www.w3.org/2000/svg">
    <g>
        <path
            d="M452.043 7.11411C450.692 8.91327 449.504 10.8679 447.961 12.4834C442.562 18.1353 437.041 23.6701 431.612 29.2018C426.972 26.6094 422.918 23.8585 418.49 21.9947C413.031 19.6969 410.156 21.4938 408.927 27.2171C406.677 37.6947 404.493 48.1865 402.23 58.919C408.075 58.919 413.562 58.919 420.483 58.919C418.107 64.2088 416.209 68.9466 413.774 73.3901C413.327 74.2059 410.703 73.936 409.079 73.9768C405.929 74.056 402.776 74 399.13 74C388.629 125.979 378.16 177.799 367.656 229.797C356.627 229.797 345.673 229.797 333.598 229.797C338.432 205.481 343.217 181.409 348.003 157.336C336.472 167.947 323.385 174.168 307.905 174.993C292.286 175.825 277.854 173.638 268.86 159.008C262.263 163.38 256.215 167.792 249.78 171.538C243.633 175.116 236.626 175.619 229.68 174.919C222.34 174.179 215.636 167.016 213.181 157.302C210.158 159.625 207.278 161.636 204.627 163.913C195.831 171.471 185.937 175.976 174.1 174.969C167.279 174.389 162.291 170.959 158.941 164.88C154.137 156.163 153.87 146.668 155.45 137.472C159.143 115.968 163.767 94.6252 167.998 73.2139C168.725 69.5352 169.124 65.767 170.185 62.192C170.569 60.9002 172.429 59.1754 173.655 59.1435C183.292 58.8925 192.939 59.0042 203.094 59.0042C201.162 68.64 199.261 77.8216 197.487 87.0278C194.282 103.67 191.153 120.327 187.991 136.977C187.17 141.299 186.309 145.614 185.539 149.945C185.252 151.556 184.998 153.208 185.032 154.834C185.158 160.844 189.415 163.321 194.305 159.788C204.182 152.651 211.941 144.178 214.13 131.244C217.935 108.76 222.628 86.4268 226.903 64.0217C227.179 62.5781 227.068 61.0606 227.15 59.2918C237.678 59.2918 248.098 59.2918 259.204 59.2918C257.95 65.9773 256.715 72.4611 255.52 78.9524C252.335 96.2666 249.186 113.588 245.982 130.898C244.855 136.983 243.527 143.031 242.458 149.125C242.061 151.386 241.879 153.754 242.067 156.035C242.387 159.908 246.15 162.137 249.45 159.985C254.217 156.874 258.575 153.109 262.926 149.411C263.722 148.735 264.132 146.954 263.916 145.838C260.775 129.654 262.941 114.068 268.965 98.8912C277.003 78.6415 289.936 63.1475 312.152 58.5944C326.973 55.5569 340.528 58.9651 345.291 75.9558C348.95 89.0102 345.613 101.164 336.886 111.544C326.472 123.931 312.818 129.233 296.826 129.005C295.994 128.993 295.159 129.016 294.33 129.084C294.021 129.109 293.727 129.308 293.427 129.432C293.46 145.728 302.241 160.677 319.981 158.893C330.818 157.804 338.685 151.067 345.971 143.427C353.346 135.692 354.582 125.885 356.473 116.138C359.169 102.248 362.161 88.4165 365.118 74.1205C360.351 74.1205 355.901 74.1205 350.65 74.1205C352.594 69.3699 353.932 65.016 356.176 61.1936C356.989 59.8083 360.068 58.9089 361.939 59.1485C367.363 59.8433 369.643 57.7569 371.136 52.5421C375.177 38.4249 381.249 25.3474 392.344 15.0621C399.688 8.25412 408.034 4.03853 417.989 2.94586C418.864 2.84983 419.673 2.14792 420.256 1.36371C425.022 1 430.044 1 435.533 1C436.374 1.64351 436.659 2.7694 437.135 2.85595C441.922 3.72802 446.74 4.42977 451.783 5.82767C452.025 6.68867 452.034 6.90139 452.043 7.11411ZM294.078 113.803C294.149 115.175 294.22 116.546 294.308 118.249C296.188 117.715 297.404 117.138 298.655 117.05C319.505 115.58 331.019 93.0153 328.917 75.3229C328.533 72.0915 326.33 69.9816 323.066 71.125C319.648 72.3226 316.031 73.8828 313.415 76.2816C302.651 86.1515 297.98 99.3403 294.078 113.803Z"
            fill="currentColor" />
        <path
            d="M101.531 1C102.632 1.66467 103.142 2.59954 103.917 2.95174C110.82 6.09106 118.42 8.17647 124.577 12.3841C139.25 22.4115 141.267 40.7927 134.599 54.8244C130.366 63.7331 125.58 68.9557 116.231 75.3154C120.027 77.1959 123.858 78.6613 127.231 80.8371C145.011 92.3067 151.352 112.171 146.594 131.798C141.184 154.117 126.224 166.647 104.302 170.821C93.8711 172.808 83.1158 173.503 72.4756 173.876C58.1909 174.377 43.8755 174 28.5305 174C38.8234 122.442 49.0121 71.4047 59.2993 19.8747C39.8289 27.1642 20.891 52.0065 33.4013 75.1436C22.8165 79.7795 12.293 84.3887 1.38473 88.9989C0.999996 79.9791 0.999996 70.9582 1.24906 61.8076C1.95109 61.222 2.72125 60.8206 2.81025 60.3022C4.65261 49.5717 10.0797 40.5399 17.0503 32.6159C31.7336 15.9241 50.4145 6.27528 72.382 2.90627C73.0042 2.81085 73.4643 1.65917 74 1C83.0209 1 92.0418 1 101.531 1ZM100.977 144.531C102.271 143.233 103.692 142.037 104.838 140.62C112.573 131.052 116.839 120.46 113.482 108.018C109.661 93.8552 95.3254 84.5557 77.9665 87.4607C73.4719 110.442 68.9493 133.567 64.3673 156.995C78.0025 157.254 90.1087 153.83 100.977 144.531ZM99.405 65.0648C110.568 55.6841 114.068 43.8095 111.006 29.7358C109.558 23.0802 100.284 14.1962 92.315 15.5329C88.7348 33.8261 85.1532 52.1265 81.5347 70.6157C88.879 71.9754 93.5674 67.7401 99.405 65.0648Z"
            fill="currentColor" />
        <path
            d="M440.469 236C439.568 235.299 439.302 234.237 438.679 233.949C424.352 227.32 423.554 210.553 428.41 199.16C434.05 185.925 445.672 180.617 458.48 177.039C460.5 176.475 462.579 176.124 464.659 175.668C465.487 171.153 466.293 166.759 467.042 162.674C459.574 166.334 452.631 170.654 445.09 173.21C434.625 176.757 424.207 176.464 416.395 166.85C410.324 159.377 408.982 150.344 410.481 141.35C413.53 123.046 417.433 104.883 421.001 86.6648C422.781 77.5752 424.597 68.4927 426.431 59.2309C437.213 59.2309 447.967 59.2309 458.734 59.2309C454.792 79.5861 450.905 99.7186 446.989 119.845C445.248 128.797 443.435 137.735 441.688 146.685C441.375 148.285 441.182 149.912 441.007 151.534C440.097 159.979 443.428 163.957 452.395 158.688C463.532 152.144 471.97 143.535 474.2 129.547C477.222 110.593 481.651 91.863 485.481 73.0377C486.415 68.446 487.363 63.8571 488.325 59.1699C498.852 59.1699 509.135 59.1699 520.578 59.1699C512.834 97.5653 505.167 135.579 497.48 173.696C507.491 174.776 517.841 175.356 527.99 177.105C546.113 180.229 564.127 184.003 582.162 187.625C588.534 188.904 594.835 190.531 601.584 192C602 192.75 602 193.5 601.629 194.626C600.124 195.548 598.803 195.879 597.885 196.674C591.298 202.382 584.793 208.184 578.49 213.754C562.05 208.07 545.969 201.94 529.525 197.025C518.683 193.783 507.337 192.18 496.157 190.179C495 189.972 492.743 191.778 492.185 193.137C490.59 197.021 489.591 201.151 488.388 205.193C484.235 219.143 476.207 229.517 461.864 234.156C461.423 234.299 461.281 235.365 461 236C454.312 236 447.625 236 440.469 236ZM446.313 214.902C456.835 210.483 458.137 200.577 460.403 190.895C454.628 192.893 449.163 195.211 444.012 198.09C440.39 200.114 438.588 203.548 438.982 207.946C439.351 212.064 442.143 213.726 446.313 214.902Z"
            fill="currentColor" />
        <path
            d="M452.288 7.01066C452.034 6.90139 452.025 6.68867 452.005 6.15585C452.174 6.19291 452.353 6.55006 452.288 7.01066Z"
            fill="currentColor" />
    </g>
</svg>