<svg version="1" xmlns="http://www.w3.org/2000/svg" width="973.333" height="973.333" viewBox="0 0 730.000000 730.000000"><path d="M400.8 49.5c-.2.1-4.6.5-9.8.9-14 .9-35.9 4-50 7.2-10.6 2.4-39.4 10.6-40.5 11.5-.5.5-1.5.9-2.2.9-4.3 0-38.2 14.9-55 24.2-15.9 8.8-40.5 24.7-44.3 28.8-.3.3-3.9 3.2-8 6.4-10.1 8-30.8 28.9-40.1 40.6-31.7 39.6-49.3 82.6-54.6 133-1.8 17.4-.1 66 2.2 66 .5 0 8.5-3.5 18-8 5-2.3 11-5.1 13.5-6.2 2.5-1.1 15.8-7.2 29.5-13.5 13.8-6.4 27.5-12.7 30.5-14 3-1.4 8.8-4.1 12.8-5.9 4.1-1.9 7.8-3.4 8.3-3.4.5 0-.2-2.2-1.6-4.9-8.7-17.3-12.5-33.3-12.6-52.5 0-30.2 10.6-59 32.3-87.8 8.3-11 24.1-26.8 34.7-34.8 1.8-1.4 4.5-3.4 5.9-4.6 8.9-6.9 37.8-22.4 41.8-22.4 1 0 1.3.6 1 1.8-.3 1-2.4 11-4.7 22.2-2.2 11.3-4.2 21.4-4.5 22.5-.2 1.1-1.1 5.6-2 10-.8 4.4-1.7 8.9-1.9 10-.3 1.1-2.5 12.3-5.1 25-2.5 12.6-5 25-5.5 27.5s-1.1 5.4-1.3 6.5c-.6 3.1-3.7 18.7-4.1 21-.3 1.1-3 14.6-6.1 30-3 15.4-5.7 28.9-6 30-1.5 7.3-3.6 18-4 20.2-.3 1.5-1.2 5.9-2 9.8-.8 3.8-1.7 8.6-2 10.5-.3 1.9-.7 4.3-1 5.2-.3 1-.7 2.8-.9 4-.3 1.3-1.6 7.9-3 14.8s-2.8 14.1-3.1 16c-.3 1.9-1.2 6.2-1.9 9.5-.8 3.3-1.6 7.3-1.9 9-.5 2.7-11.2 56.3-12.2 61-.2 1.1-1.1 5.6-2 10-.8 4.4-1.7 8.9-1.9 10-.3 1.1-2.5 12.3-5.1 25-2.5 12.6-5 25-5.5 27.5s-1.1 5.4-1.3 6.5c-.6 3.1-3.7 18.7-4.1 21-.3 1.1-3 14.6-6.1 30-3 15.4-5.7 28.8-5.9 29.8-1.3 6.1-7.5 37.7-7.9 40.2l-.5 3 93.2-.1c82.5 0 110-.5 124.2-1.9 2.2-.2 7.6-.7 12-1.1 4.4-.3 8.7-.8 9.6-.9.9-.2 4-.6 7-1 3-.3 9.2-1.3 13.9-2.2 4.7-.8 9.6-1.7 10.9-1.9 1.2-.3 5.3-1.2 9-2 3.6-.9 7.3-1.7 8.1-1.9 2.5-.5 19.3-5.5 21.5-6.4 1.1-.5 6.2-2.6 11.4-4.7 33.1-13.2 60.4-34.6 79.7-62.4 3.5-5.1 13.4-21.7 13.4-22.5 0-.2 1.8-4.1 3.9-8.7 5.2-11.1 10.4-26.2 12.9-37.8 2.1-9.3 2.4-11.2 3.9-21.5 1.4-10.1.5-47.8-1.3-50.7-.2-.4-.7-2.6-1-5-.4-2.4-1.7-8.1-3.1-12.8-12.4-43.2-40.7-77.8-80.3-98.4-10.7-5.5-23.6-10.7-32.3-13l-4.9-1.2 8.1-5.3c4.4-2.9 9.1-6.2 10.3-7.2 1.3-1 2.8-2.2 3.3-2.6 2.4-1.8 14.2-12 16-13.8 13.7-14 22.2-25 30.7-39.5 7-11.8 14.4-30.4 16.4-41 .2-1.4.6-3 .9-3.7 2.4-7 2.4-42.3 0-46.3-.2-.4-.6-2-.9-3.6-.3-1.6-1.5-5.7-2.6-9.1-10.9-33.4-36-61.2-70.5-78.2-11.7-5.8-31.9-13.4-38.6-14.5-1.9-.3-5-1-6.9-1.6-3.8-1.1-18-3.7-24.5-4.4-13.8-1.6-18.7-1.9-34.2-2.1-9.5-.1-17.4-.1-17.5 0zM444 97.2c25.6 6.7 45.8 23.4 54.8 45.3 5.4 13.2 6.7 20.8 6.7 40.5 0 16.2-.6 23.5-3 33.6-7.8 34-28.8 60.8-60 76.8-5.8 2.9-10.8 5.2-13.5 6.1-.3.1-1.2.5-2 .8-7.2 3.1-37.3 9.8-38.4 8.6-.3-.2 1.1-7.8 2.9-16.9 1.8-9.1 3.6-18.1 3.9-20.1.3-2 .8-4.2 1-5 .3-.8.7-3 1-5 .3-2 .8-4.2 1-5 .3-.8.7-3 1-4.9.3-1.9 1.9-10.3 3.6-18.5 1.7-8.3 3.3-16.1 3.5-17.5.2-1.4 2.4-12.6 5-25 2.5-12.4 4.8-23.9 5.1-25.5.3-1.7 1.1-6.2 1.9-10 .8-3.9 1.6-8.1 1.9-9.5 4.6-23.9 9.8-49.8 10.1-50.8.5-1.4 1.3-1.2 13.5 2zm-30.5 263.2c5 .7 13.3 2.2 21.5 4.1 4.5 1 17.5 6.2 24.4 9.8 38.5 19.9 59.8 61.9 55.1 108.7-.6 5.5-2 14-2.9 17.5-.2.5-.6 2.3-1 4-1.4 5.3-6.8 19.9-9.3 25-28.4 57.1-89.2 92-163 93.4l-12.5.2.6-2.8c.4-1.5.8-3.9 1.1-5.3.3-1.4.9-4.8 1.5-7.5.5-2.8 1.2-6.4 1.5-8 .3-1.7.7-3.9.9-5 .2-1.1 2.3-11.7 4.5-23.5 2.3-11.8 4.8-24.4 5.6-28 .7-3.6 1.6-8.3 2-10.5.3-2.2.7-4.7 1-5.5.2-.8.6-2.6.9-4 .3-1.4 1-5.2 1.6-8.5.6-3.3 2.7-13.9 4.6-23.5 1.9-9.6 3.7-18.9 4-20.5.2-1.7 1.1-6.2 1.9-10 1.4-6.9 2-10.1 3-16 .3-1.7 1.4-7.3 2.5-12.5 1-5.2 4.4-22.6 7.5-38.5 3-16 5.8-30 6-31.2.3-1.5 1.4-2.3 3.3-2.5 4.9-.5 27.5-.1 33.7.6z"/></svg>